C:\Users\u0150099\Documents\master_thesis\3dpredictsim\Results\Exo\Pog_s1_bCst_tanh100_PF_Natali2010_x10_ls150_MT_k300_MTP_T1_spx10_ig24_act_TTC_GRF.mot
nRows=27
nColumns=19

name C:\Users\u0150099\Documents\master_thesis\3dpredictsim\Results\Exo\Pog_s1_bCst_tanh100_PF_Natali2010_x10_ls150_MT_k300_MTP_T1_spx10_ig24_act_TTC_GRF.mot
datacolumns 19
datarows 27
range 0.6280201744 0.9545906651
endheader
time 	ground_force_vx	ground_force_vy	ground_force_vz	ground_force_px	ground_force_py	ground_force_pz	1_ground_force_vx	1_ground_force_vy	1_ground_force_vz	1_ground_force_px	1_ground_force_py	1_ground_force_pz	ground_torque_x	ground_torque_y	ground_torque_z	1_ground_torque_x	1_ground_torque_y	1_ground_torque_z
        0.6280201744	      129.8035203854	      484.4134613869	        1.6664944175	        0.4344133456	        0.0000000000	        0.0382808623	      -54.8575128449	       42.3833408168	       -9.2694377701	        1.0183610047	        0.0000000000	       -0.0514816808	        0.0000000000	        0.0000000000	        0.0000000000	        0.0000000000	        0.0000000000	        0.0000000000	
        0.6405805779	       98.8352644841	      375.8919891279	        2.5926061399	        0.4402502314	        0.0000000000	        0.0354592655	     -131.0647609802	      130.4631611057	      -28.5956773264	        1.0262885251	        0.0000000000	       -0.0500490752	        0.0000000000	        0.0000000000	        0.0000000000	        0.0000000000	        0.0000000000	        0.0000000000	
        0.6531409814	       72.3358394502	      275.8180922376	        2.5704690830	        0.4464573429	        0.0000000000	        0.0324418875	      -75.5925022680	      563.6761467771	       12.3007733947	        1.0292865170	        0.0000000000	       -0.0495328748	        0.0000000000	        0.0000000000	        0.0000000000	        0.0000000000	        0.0000000000	        0.0000000000	
        0.6657013849	       51.6899528910	      209.4690333547	       11.2516672467	        0.4497951415	        0.0000000000	        0.0310111150	     -133.0871045375	      717.0081426979	        9.0915112662	        1.0312461736	        0.0000000000	       -0.0494280762	        0.0000000000	        0.0000000000	        0.0000000000	        0.0000000000	        0.0000000000	        0.0000000000	
        0.6782617884	       37.8963670342	      150.4084354982	       19.7192440288	        0.4504658081	        0.0000000000	        0.0311131392	     -153.7134174956	      738.7055960727	        3.7520711756	        1.0338049343	        0.0000000000	       -0.0494413751	        0.0000000000	        0.0000000000	        0.0000000000	        0.0000000000	        0.0000000000	        0.0000000000	
        0.6908221919	       18.9927995341	       83.2578353292	       17.7249454604	        0.4515750208	        0.0000000000	        0.0309073827	     -142.6410712368	      741.6827523934	        4.1857891680	        1.0370853366	        0.0000000000	       -0.0497042356	        0.0000000000	        0.0000000000	        0.0000000000	        0.0000000000	        0.0000000000	        0.0000000000	
        0.7033825954	       -4.3585937011	       24.6332316331	        6.4615557214	        0.4535230679	        0.0000000000	        0.0303443027	     -135.0628634720	      752.3492560748	        8.2327809862	        1.0409348515	        0.0000000000	       -0.0502026781	        0.0000000000	        0.0000000000	        0.0000000000	        0.0000000000	        0.0000000000	        0.0000000000	
        0.7159429988	       -0.5119187978	        0.4823162203	        0.0092606194	        0.0000000000	        0.0000000000	        0.0000000000	     -123.1587468685	      756.6688993731	       10.7584641781	        1.0452347832	        0.0000000000	       -0.0506934852	        0.0000000000	        0.0000000000	        0.0000000000	        0.0000000000	        0.0000000000	        0.0000000000	
        0.7285034023	        0.0274804911	       -0.0217404877	        0.0007815495	        0.0000000000	        0.0000000000	        0.0000000000	     -114.1182249529	      747.8935826881	       12.0458763611	        1.0511247581	        0.0000000000	       -0.0510809597	        0.0000000000	        0.0000000000	        0.0000000000	        0.0000000000	        0.0000000000	        0.0000000000	
        0.7410638058	       -0.0125302430	        0.0085573563	       -0.0005566477	        0.0000000000	        0.0000000000	        0.0000000000	     -107.6851906850	      734.3382628008	       14.2939893705	        1.0585255424	        0.0000000000	       -0.0513542002	        0.0000000000	        0.0000000000	        0.0000000000	        0.0000000000	        0.0000000000	        0.0000000000	
        0.7536242093	       -0.0206360238	        0.0126184969	       -0.0010606266	        0.0000000000	        0.0000000000	        0.0000000000	      -99.7207420554	      707.4124756799	       15.3717939350	        1.0656135855	        0.0000000000	       -0.0514900451	        0.0000000000	        0.0000000000	        0.0000000000	        0.0000000000	        0.0000000000	        0.0000000000	
        0.7661846128	       -0.0089934051	        0.0050496064	       -0.0004750934	        0.0000000000	        0.0000000000	        0.0000000000	      -90.1105481449	      674.6803442137	       15.7353464565	        1.0717644360	        0.0000000000	       -0.0515541017	        0.0000000000	        0.0000000000	        0.0000000000	        0.0000000000	        0.0000000000	        0.0000000000	
        0.7787450163	       -0.0040180682	        0.0021108296	       -0.0002180619	        0.0000000000	        0.0000000000	        0.0000000000	      -80.1396419449	      644.3672174344	       16.4047481167	        1.0772980627	        0.0000000000	       -0.0516214826	        0.0000000000	        0.0000000000	        0.0000000000	        0.0000000000	        0.0000000000	        0.0000000000	
        0.7913054198	       -0.0022812375	        0.0011392391	       -0.0001237199	        0.0000000000	        0.0000000000	        0.0000000000	      -70.5227403211	      619.7587751999	       16.9111886758	        1.0824793509	        0.0000000000	       -0.0517418083	        0.0000000000	        0.0000000000	        0.0000000000	        0.0000000000	        0.0000000000	        0.0000000000	
        0.8038658233	       -0.0017701648	        0.0008485979	       -0.0000959873	        0.0000000000	        0.0000000000	        0.0000000000	      -61.6329398926	      601.0402564038	       17.5127452941	        1.0873916502	        0.0000000000	       -0.0519343336	        0.0000000000	        0.0000000000	        0.0000000000	        0.0000000000	        0.0000000000	        0.0000000000	
        0.8164262268	       -0.0018788077	        0.0008698004	       -0.0001016788	        0.0000000000	        0.0000000000	        0.0000000000	      -53.8397339791	      586.9988241373	       18.2952807285	        1.0920573706	        0.0000000000	       -0.0522009741	        0.0000000000	        0.0000000000	        0.0000000000	        0.0000000000	        0.0000000000	        0.0000000000	
        0.8289866302	       -0.0026518036	        0.0011913008	       -0.0001426812	        0.0000000000	        0.0000000000	        0.0000000000	      -46.8601252525	      576.9283926559	       18.8181414468	        1.0964516525	        0.0000000000	       -0.0525363913	        0.0000000000	        0.0000000000	        0.0000000000	        0.0000000000	        0.0000000000	        0.0000000000	
        0.8415470337	       -0.0047587834	        0.0020807372	       -0.0002529476	        0.0000000000	        0.0000000000	        0.0000000000	      -40.6130877443	      570.6413603936	       19.1258139689	        1.1005422626	        0.0000000000	       -0.0529331391	        0.0000000000	        0.0000000000	        0.0000000000	        0.0000000000	        0.0000000000	        0.0000000000	
        0.8541074372	       -0.0103832370	        0.0044257784	       -0.0005389151	        0.0000000000	        0.0000000000	        0.0000000000	      -35.7854180556	      568.6978200509	       19.1116953902	        1.1042504314	        0.0000000000	       -0.0533852657	        0.0000000000	        0.0000000000	        0.0000000000	        0.0000000000	        0.0000000000	        0.0000000000	
        0.8666678407	       -0.0257969808	        0.0107376768	       -0.0012843217	        0.0000000000	        0.0000000000	        0.0000000000	      -31.7309918449	      570.5380115092	       19.0877817866	        1.1074808515	        0.0000000000	       -0.0538900945	        0.0000000000	        0.0000000000	        0.0000000000	        0.0000000000	        0.0000000000	        0.0000000000	
        0.8792282442	       -0.0673859981	        0.0274541775	       -0.0031793155	        0.0000000000	        0.0000000000	        0.0000000000	      -27.8915368153	      573.7184330012	       19.4505372132	        1.1102366708	        0.0000000000	       -0.0544384288	        0.0000000000	        0.0000000000	        0.0000000000	        0.0000000000	        0.0000000000	        0.0000000000	
        0.8917886477	       -0.1704755312	        0.0681685097	       -0.0075860186	        0.0000000000	        0.0000000000	        0.0000000000	      -23.9239332942	      576.3456969592	       20.0289447887	        1.1125785962	        0.0000000000	       -0.0550180396	        0.0000000000	        0.0000000000	        0.0000000000	        0.0000000000	        0.0000000000	        0.0000000000	
        0.9043490512	       -0.3880165871	        0.1527285384	       -0.0162756292	        0.0000000000	        0.0000000000	        0.0000000000	      -19.5862343240	      577.4063393783	       20.7833080524	        1.1145664966	        0.0000000000	       -0.0556170835	        0.0000000000	        0.0000000000	        0.0000000000	        0.0000000000	        0.0000000000	        0.0000000000	
        0.9169094547	       -0.7531763972	        0.2926976791	       -0.0298819236	        0.0000000000	        0.0000000000	        0.0000000000	      -14.8345155301	      576.6790420877	       21.6960627587	        1.1162680546	        0.0000000000	       -0.0562238242	        0.0000000000	        0.0000000000	        0.0000000000	        0.0000000000	        0.0000000000	        0.0000000000	
        0.9294698581	       -1.2086904140	        0.4651921734	       -0.0454531187	        0.0000000000	        0.0000000000	        0.0000000000	       -9.7894807538	      573.9391098271	       22.4825608560	        1.1176663472	        0.0000000000	       -0.0568358028	        0.0000000000	        0.0000000000	        0.0000000000	        0.0000000000	        0.0000000000	        0.0000000000	
        0.9420302616	       -1.6053949599	        0.6134596417	       -0.0569507788	        0.0000000000	        0.0000000000	        0.0000000000	       -4.6398457674	      568.3143209652	       22.5266016426	        1.1188587672	        0.0000000000	       -0.0574377217	        0.0000000000	        0.0000000000	        0.0000000000	        0.0000000000	        0.0000000000	        0.0000000000	
        0.9545906651	       -1.8268336670	        0.6940633979	       -0.0598201975	        0.0000000000	        0.0000000000	        0.0000000000	        0.0753680947	      560.7940288618	       22.0595575936	        1.1202416616	        0.0000000000	       -0.0579827894	        0.0000000000	        0.0000000000	        0.0000000000	        0.0000000000	        0.0000000000	        0.0000000000	
